<?xml version="1.0" encoding="UTF-8"?>
<svg id="Layer_1" xmlns="http://www.w3.org/2000/svg" viewBox="0 0 812.09 810.11">
  <path d="M143.34,372.85c-12.11,14.61-24.15,28.38-35.27,42.86-5.35,6.96-10.91,9.88-19.89,9.5-19.04-.81-38.13-.25-57.2-.26-1.84,0-3.68,0-5.88,0v-125.71c1.72,0,3.36,0,5.01,0,22.98,0,45.96.07,68.94-.08,3.44-.02,5.72.91,7.92,3.65,10.86,13.53,21.95,26.87,32.97,40.27,1.07,1.3,2.21,2.53,3.62,4.14,3.4-4.13,6.56-7.94,9.69-11.78,8.99-11.02,17.93-22.09,27.02-33.02,1.17-1.4,3.14-3.04,4.75-3.04,14.52,0,29.14-.6,43.56.77,34.16,3.24,58.01,31.72,56.3,66-1.63,32.68-29.03,58.44-62.62,58.79-10.32.11-20.64-.12-30.95.1-3.61.08-6.01-.99-8.32-3.85-11.65-14.5-23.52-28.82-35.32-43.2-1.28-1.55-2.59-3.08-4.33-5.14ZM132.41,359.92c-12.07-14.56-23.87-28.9-35.87-43.07-.96-1.13-3.32-1.49-5.03-1.51-14.84-.11-29.69-.07-44.54-.05-1.36,0-2.72.19-4.19.29v38.05h5.34c13.6,0,27.2.3,40.78-.15,5.59-.18,8.67,2.06,10.94,6.76-.99,1.24-2.15,2.34-2.89,3.68-2.79,5.03-7.07,6.02-12.53,5.86-12.18-.37-24.37-.12-36.56-.12-1.65,0-3.31,0-5.05,0v39.27c15.9,0,31.5.04,47.1-.09,1.16,0,2.6-1,3.41-1.96,12.94-15.45,25.8-30.96,39.1-46.97ZM266.81,365.72c.81-12.97-2.45-23.63-10.31-32.78-.41-.47-2.93-.03-3.55.73-5.09,6.27-9.71,12.74-4.25,21.22.74,1.14.75,2.74,1.43,3.94.56.98,1.46,2.1,2.46,2.45,4.38,1.53,8.84,2.8,14.23,4.45ZM181.27,332.71c-8.56,11.05-11.02,22.37-9.86,34.91,12.27-1.67,15.59-4.46,18.54-15.11.33-1.2.84-2.38.96-3.6.12-1.17.28-2.67-.31-3.53-2.79-4.08-5.83-7.98-9.33-12.67ZM199.86,319.1c1.26,1.84,1.99,2.99,2.81,4.07q7.94,10.54,21.06,9.07c1.27-.14,2.9-.64,3.6-1.55,2.89-3.78,5.48-7.78,8.53-12.21-12.29-3.98-23.74-3.35-35.99.61ZM259.77,387.74c-11.47-6.3-15.21-5.91-26.14,3.02-5.81,4.74-1.27,10.91-2.53,16.98,12.71-3.08,21.61-9.84,28.67-20ZM179.36,389.74c7.55,10.06,17.05,16.19,29.25,18.42,3.16-18.26-11.91-29.16-29.25-18.42ZM240.32,319.82c-4.36,8.8-11.83,15.09-12.88,24.81-.15,1.41.38,3.4,1.35,4.27.72.64,2.84.28,4.05-.28,9.21-4.25,12.67-13.64,19.52-20.87-4.36-2.87-7.93-5.23-12.04-7.93ZM184,329.31c3.27,3.93,5.9,7.66,9.1,10.79,3.49,3.42,7.42,6.42,11.38,9.3.9.65,3.17.54,4.01-.17.83-.7,1.11-2.68.87-3.95-1.81-9.65-9.22-15.92-14.25-24.38-3.99,3.02-7.41,5.6-11.11,8.41ZM266.09,369.19c-9.19-1.25-18.3-2.59-27.45-3.63-1.09-.12-3.03,1.09-3.35,2.07-.33,1.03.56,2.75,1.39,3.79,4.1,5.18,10.11,6.81,16.1,8.6,10.98,3.29,10.95,3.39,13.29-7.86.09-.44.01-.91.01-2.98ZM176.27,385.35c4.48-1.75,8.53-2.96,12.23-4.86,4.48-2.29,8.75-5.02,12.91-7.85.96-.65,1.85-2.93,1.42-3.73-.61-1.14-2.42-2.15-3.81-2.3-9.66-.99-17.81,4.13-27.43,6.25,1.74,4.64,3.18,8.49,4.68,12.49ZM227.7,408.71c-1.79-9.36-3.3-17.83-5.14-26.23-.23-1.06-2.14-2.47-3.23-2.43-1.08.03-2.47,1.49-3.11,2.66-4.49,8.34-2.07,17.22-2.38,26h13.85ZM225.05,363.23c.09-3.43-2.66-6.31-6.12-6.39-3.53-.08-6.27,2.56-6.33,6.1-.06,3.55,2.55,6.33,6.04,6.41,3.42.08,6.32-2.7,6.42-6.12ZM212.43,359.58c-2.22-1.56-3.56-3.23-4.67-3.09-1.23.16-2.25,1.97-3.36,3.07,1.11,1.09,2.12,2.9,3.35,3.06,1.11.15,2.46-1.5,4.68-3.04ZM218.49,355.74c1.58-2.17,3.27-3.47,3.17-4.62-.1-1.17-1.91-2.97-3.07-3.05-1-.07-2.86,1.82-3,3-.13,1.15,1.45,2.49,2.89,4.67ZM211.91,368.02c-1.41,2.19-2.99,3.57-2.83,4.71.17,1.19,2.07,3.03,3.1,2.96,1.15-.09,2.93-1.94,3.03-3.13.09-1.13-1.65-2.4-3.3-4.53ZM229.75,354.34c-1.44,2.26-3.01,3.65-2.84,4.78.17,1.18,2.07,2.99,3.12,2.93,1.12-.06,2.87-1.94,2.96-3.14.09-1.13-1.61-2.41-3.24-4.57ZM225.89,367.59c-1.59,2.36-3.23,3.75-3.06,4.85.18,1.18,1.96,2.63,3.27,2.91.73.16,2.68-1.81,2.7-2.86.03-1.25-1.4-2.53-2.91-4.91Z"/>
  <path d="M308.43,424.96v-125.26c.85-.18,1.44-.43,2.03-.42,18.59.27,37.25-.26,55.77,1.04,33.13,2.32,56.36,27.45,57.32,60.59.9,31.06-22.37,58.75-53.65,63.03-9.24,1.26-18.72.86-28.09.99-10.93.15-21.85.03-33.37.03ZM326.4,314.75v93.29c13.13,0,25.99.91,38.67-.2,22.54-1.97,39.02-20.36,39.99-43.04,1.05-24.69-13.31-44.47-36.72-48.04-13.62-2.08-27.66-1.42-41.93-2.01Z"/>
  <path d="M464.55,370.56v54.02h-17.65v-125.42c16,.86,31.97-1.97,47.58,2.34,14.51,4.01,23.31,14.41,24.83,28.47,1.66,15.33-4.42,26.47-18.58,34.12-.53.29-1.02.66-1.75,1.14,19.82,15.86,27.96,40.05,44.76,59.7-7.63,0-13.8.18-19.94-.14-1.28-.07-2.8-1.76-3.65-3.06-6.16-9.4-12-19.02-18.31-28.32-3.49-5.15-7.56-9.93-11.59-14.68-6.61-7.8-15.3-9.63-25.69-8.15ZM464.85,354.8c8.12-.76,15.65-.92,22.95-2.29,7.51-1.41,12.63-8.49,13.13-16.36.56-8.93-3.29-16.2-10.65-19.04-8.18-3.16-16.75-2.5-25.42-2.26v39.95Z"/>
  <path d="M714.97,299.47h70.32v15.79h-52.55v38.19h50.76v16.27h-50.89v39.09h54.37v15.78h-72.01v-125.12Z"/>
  <path d="M700.71,299.23c-1.76,4.25-3.22,7.81-4.71,11.36-15.49,36.87-30.97,73.74-46.51,110.58-.63,1.49-1.51,3.48-2.77,3.98-3.12,1.24-3.8-1.6-4.72-3.73-14.03-32.74-28.05-65.47-42.08-98.21-3.31-7.73-6.6-15.47-10.22-23.95,5.79,0,11.02-.24,16.2.18,1.21.1,2.63,2.27,3.29,3.78,11.4,26.38,22.7,52.81,34.02,79.22.55,1.28,1.1,2.56,2.14,4.97,1.02-2.13,1.72-3.44,2.29-4.81,11.11-26.17,22.31-52.31,33.22-78.56,1.59-3.83,3.53-5.28,7.59-4.88,3.82.38,7.7.08,12.24.08Z"/>
  <path d="M557.7,299.23c4.43,0,8.62-.02,12.8.01,1.37,0,2.74.15,4.37.25v125.12h-17.18v-125.38Z"/>
  <path d="M381.58,478.87c0,1.25.07,2.5-.01,3.74-.63,10.26-2.14,20.54-12.6,25.45-11.88,5.57-24.26,5.46-36.04-.85-5.24-2.81-7.9-7.9-9.31-13.51-2.44-9.7-2.49-19.48-.07-29.19,2.39-9.57,8.48-15.75,18.26-17.11,6.24-.87,12.79-1.01,19.02-.14,11.22,1.57,17.45,8.02,19.62,19.06.81,4.11,1.03,8.34,1.52,12.52-.13.01-.26.03-.39.04ZM373.32,479.27c-.08,0-.16-.01-.25-.02,0-1.4.08-2.81-.01-4.21-1.13-17.79-9.63-24.43-27.3-21.56-7.48,1.21-12.2,5.32-13.92,12.65-2.03,8.65-2.35,17.46.26,25.94,1.11,3.62,3.6,7.61,6.65,9.7,13.85,9.48,31.54,1.41,33.84-15.05.34-2.47.49-4.96.73-7.45Z"/>
  <path d="M572.37,464.95c-2.54-9.85-4.84-11.68-14.5-11.84-2.64-.04-5.33.05-7.93.48-6.26,1.03-8.9,4.12-8.96,10.04-.06,5.93,2.42,8.87,8.93,9.94,6.15,1.02,12.44,1.32,18.52,2.62,9.62,2.05,13.5,7.26,13.45,16.87-.04,9.63-4.05,15.03-13.22,17.26-8.65,2.11-17.38,2.06-25.96-.35-8.05-2.27-11.87-7.92-11.58-16.98,2.41-.38,4.93-.78,7.76-1.23.96,4.98,1.51,10.17,7.18,11.72,7.53,2.07,15.2,2.53,22.45-.88,4.64-2.19,5-6.8,4.76-11.35-.22-4.36-2.31-7.63-6.51-8.77-4.04-1.09-8.28-1.43-12.43-2.12-4-.66-8.1-.98-11.96-2.11-6.64-1.94-9.53-6.12-9.89-13.15-.42-8.21,2.16-13.77,8.48-16.2,10.12-3.89,20.52-3.88,30.66-.06,2.42.91,4.83,3.11,6.16,5.36,1.42,2.41,2.57,5.87,1.86,8.29-.41,1.4-4.72,1.66-7.25,2.43Z"/>
  <path d="M258.07,480.99h-33.53v22.92h33.47v6.72h-42.11v-63.09h42.19v6.42c-6.47,0-12.8-.09-19.13.03-4.78.09-11.09-1.26-13.85,1.23-2.4,2.15-.53,8.81-1,13.43-.47,4.62,1.29,5.82,5.74,5.67,9.31-.33,18.65-.1,28.23-.1v6.77Z"/>
  <path d="M514.58,489.81c2.58.43,4.86.81,7.6,1.26-1.65,8.64-5.57,15.19-13.84,18.19-9.72,3.53-19.64,3.45-29.4.07-6.84-2.37-11.13-7.43-13.06-14.31-2.97-10.61-2.99-21.32-.05-31.93,2.16-7.81,7.31-12.96,15.19-15.14,8.95-2.47,17.93-2.5,26.76.45,7.58,2.53,11.89,8.11,13.99,16.16-2.7.48-5.08.9-7.89,1.4-3.95-12.32-13.76-13.62-24.5-12.67-9.36.83-14.72,5-15.89,14.28-1,7.92-.75,16.19.3,24.12,1,7.57,6.5,11.8,14.18,12.81.46.06.93.14,1.4.17,13.04.7,20.4-.58,25.22-14.86Z"/>
  <path d="M265.66,447.74c6.62-1.84,10.46.25,13.29,5.9,3.06,6.11,7.06,11.74,11.09,18.29,3.95-6.39,7.96-12.07,11.11-18.19,2.82-5.49,6.45-8.05,13.25-5.96-1.33,2.17-2.63,4.32-3.97,6.46-4.23,6.76-8.36,13.58-12.76,20.22-1.54,2.32-1.47,3.98.03,6.27,6.31,9.65,12.41,19.44,18.64,29.26-7.2,2.01-8.54,1.52-12.04-4.1-4.6-7.39-9.22-14.76-14.21-22.76-4.76,7.61-9.6,14.37-13.36,21.68-2.91,5.65-6.78,7.11-13.04,5.54,1.91-3.09,3.74-6.08,5.62-9.04,4.27-6.73,8.45-13.52,12.9-20.13,1.7-2.53,1.89-4.38.12-7.06-5.67-8.57-11-17.37-16.65-26.39Z"/>
  <path d="M406.35,510.6c0-1.93,0-3.6,0-5.27,0-15.3-.13-30.6.09-45.89.06-4.14-.85-5.94-5.37-5.57-4.93.41-9.92.09-15.2.09v-6.32h49.55v6.23h-20.55v56.73h-8.52Z"/>
  <path d="M452.53,510.61h-7.88v-62.98h7.88v62.98Z"/>
</svg>